<svg id="Layer_1" data-name="Layer 1" xmlns="http://www.w3.org/2000/svg" viewBox="0 0 1891.01 934.12"><defs><style>.cls-1{fill:#231f20;}</style></defs><path class="cls-1" d="M459,346.21c-41.81-25.72-92.69-28.25-139.81-19-22.68,4.47-44.4,12.16-65.54,21.43a352.38,352.38,0,0,0-52.18,28.45A392.83,392.83,0,0,0,111,459.33,414,414,0,0,0,74.76,512a406.4,406.4,0,0,0-27,57.5,355.19,355.19,0,0,0-16.38,56.74c-4.82,24.12-7.94,49.13-6.72,73.75a179.33,179.33,0,0,0,19.58,74.17,191.26,191.26,0,0,0,41.28,53.19C121.85,860.28,168.89,879.64,217,887c49.18,7.54,99.65,4.88,147.45-9.33a311.08,311.08,0,0,0,122.22-69.09,300.66,300.66,0,0,0,75-109.62,259.18,259.18,0,0,0,9.67-29.11,20.8,20.8,0,0,0-2-15.41c-2.43-4.15-7.19-8.11-12-9.2-10.51-2.39-21.7,3.16-24.6,14a263.9,263.9,0,0,1-11.46,33.49l2-4.78a276.88,276.88,0,0,1-35.64,61l3.13-4a287.36,287.36,0,0,1-51.11,51.2l4-3.13a287.09,287.09,0,0,1-63.5,37l4.78-2A310.41,310.41,0,0,1,306.9,849.2l5.32-.71a318.39,318.39,0,0,1-84.62,0l5.32.71a276.05,276.05,0,0,1-69-18.37l4.78,2a215.48,215.48,0,0,1-47.32-27.21l4,3.12a187,187,0,0,1-33.31-33.1l3.12,4a167.18,167.18,0,0,1-21.67-36.87l2,4.77A152.06,152.06,0,0,1,65.36,710l.71,5.32c-2.78-20.76-1.73-41.79,1-62.5l-.72,5.32A356.48,356.48,0,0,1,91.17,568l-2,4.78a378.38,378.38,0,0,1,36.37-66.51q6.1-8.93,12.71-17.47l-3.13,4a383.3,383.3,0,0,1,51.49-54.67q8.15-7.08,16.68-13.69l-4.05,3.13a358,358,0,0,1,79.35-46.51l-4.78,2a280.76,280.76,0,0,1,70.45-19.76l-5.32.71a202.36,202.36,0,0,1,52.73-.47l-5.31-.71a152.7,152.7,0,0,1,39,10.45l-4.78-2a141,141,0,0,1,18.15,9.39c8.92,5.49,22.39,2.23,27.36-7.17,5.16-9.77,2.35-21.51-7.18-27.37Z" transform="translate(-24.4 -43.82)"/><path class="cls-1" d="M436.81,347.12A92.4,92.4,0,0,1,441,334.43l-2,4.77a99.87,99.87,0,0,1,12.55-21.49l-3.12,4a114.39,114.39,0,0,1,20.3-20.24l-4.05,3.13A127.76,127.76,0,0,1,492,288.78l-4.78,2a168,168,0,0,1,42.67-11.34l-5.32.71a231.33,231.33,0,0,1,60.8.33l-5.32-.72A251,251,0,0,1,642.75,297L638,295a250.75,250.75,0,0,1,55.33,32.27l-4-3.13a242.91,242.91,0,0,1,43,43.06l-3.13-4.05a255.43,255.43,0,0,1,32.83,56.45l-2-4.78a257.25,257.25,0,0,1,17.5,63.91l-.71-5.32a271.63,271.63,0,0,1-.4,71.55l.72-5.31c-5.92,44-20.06,86.54-35.08,128.15-3.79,10.52-7.78,21-12.13,31.27l2-4.78c-9.61,22.69-21,44.72-36.09,64.31l3.13-4.05a179.48,179.48,0,0,1-31.75,32l4-3.13A188.42,188.42,0,0,1,630,807l4.78-2c-22.17,9.28-45.68,14.84-69.45,18.1l5.31-.71c-12,1.61-24.06,2.65-36.15,3.24-13.09.63-26.36,1.16-39.39-.56l5.32.71a76.53,76.53,0,0,1-18.11-4.7l4.78,2a56.93,56.93,0,0,1-12.08-7l4.05,3.13a49.17,49.17,0,0,1-8-7.85l3.12,4.05a41.17,41.17,0,0,1-5.21-8.78l2,4.77a39.81,39.81,0,0,1-1.61-4.88c-2.64-10.13-14.43-17.27-24.61-14-10.43,3.37-16.79,13.75-14,24.6,5.93,22.73,26,38.68,47.93,44.88,20.49,5.8,42.84,4.47,63.86,3.09,39.73-2.61,79.08-10,115.29-27a193.71,193.71,0,0,0,48.36-32.49c14.5-13.28,26.79-29.16,37.13-45.84,20.55-33.16,33.74-70.57,46.19-107.35,14.27-42.16,26.32-85.42,28.92-130.07a267.47,267.47,0,0,0-18.91-115.6c-14.93-36.66-36.79-70.34-66-97.34A270,270,0,0,0,630.43,250c-39-12.11-81.17-15.12-121.33-7.51-40.31,7.64-79.1,30.14-99.75,66.51a111.6,111.6,0,0,0-11.12,27.46c-2.55,10.13,3.28,22.16,14,24.6,10.38,2.36,21.87-3.12,24.61-14Z" transform="translate(-24.4 -43.82)"/><path class="cls-1" d="M740.71,312.42a56.73,56.73,0,0,1,3.28-11l-2,4.78a58.8,58.8,0,0,1,7.44-12.7l-3.13,4.05A72.52,72.52,0,0,1,759,284.93l-4,3.13a100.25,100.25,0,0,1,22.18-12.71l-4.78,2a132.71,132.71,0,0,1,33.1-8.87l-5.31.72a203,203,0,0,1,52.82.24l-5.32-.71a231.74,231.74,0,0,1,58.84,16.2l-4.78-2a254.94,254.94,0,0,1,56.15,32.92l-4-3.13a257.22,257.22,0,0,1,45.53,45.48l-3.12-4a194,194,0,0,1,25.16,42l-2-4.78a156.69,156.69,0,0,1,10.71,40.08l-.71-5.32A275.21,275.21,0,0,1,1031,472c-.54,14.56-1.7,29.09-3.62,43.52l.71-5.31c-3.64,27-10,53.7-20.65,78.87l2-4.78a218.4,218.4,0,0,1-27.85,48.12l3.12-4.05A190.93,190.93,0,0,1,951.38,662l4-3.13a163.29,163.29,0,0,1-35.57,21l4.77-2A144.81,144.81,0,0,1,899,686c-4.75,1-9.55,5.09-12,9.19-2.51,4.29-3.58,10.61-2,15.41,3.49,10.78,13.63,16.35,24.6,14,27-5.86,51.42-19.24,72.77-36.48,20.31-16.4,37.37-37.43,50.15-60.15,14.68-26.08,24.54-54.92,30.36-84.22a431.66,431.66,0,0,0,8.34-91.92c-.32-16.58-2-33.38-6-49.5A174.45,174.45,0,0,0,1047.54,359a248.67,248.67,0,0,0-26.61-37.37,253.23,253.23,0,0,0-26.61-27.11c-20.25-17.75-42.89-32.92-67.49-44A270.35,270.35,0,0,0,887.18,236a252.73,252.73,0,0,0-41.59-7.4,203.78,203.78,0,0,0-37.62-.24c-13,1.14-26,3.25-38.46,7.49-11.86,4.05-23.67,9.36-33.75,16.93-10.83,8.14-20.7,17.71-26.84,30a74.36,74.36,0,0,0-6.78,19c-1,5.35-.81,10.58,2,15.42,2.43,4.14,7.19,8.1,12,9.19,5.12,1.16,10.86.91,15.41-2,4.18-2.7,8.21-6.88,9.19-11.95Z" transform="translate(-24.4 -43.82)"/><path class="cls-1" d="M668,832.94c27.64,16.86,55.7,33.32,86.37,44.1a192.17,192.17,0,0,0,49,10.34c18,1.38,36-1.08,53.63-4.27,34.15-6.17,68.13-13.47,102.17-20.25,31.26-6.23,62.68-12,93.78-19,26.75-6,53.15-13.79,77.87-25.83C1156,805.82,1178.16,788,1194,764.78c18.47-27.17,25.58-61.29,25.8-93.72.21-30.32-6.09-60.84-19.82-88-13-25.73-34.44-48.4-61.11-60-14.51-6.32-29.17-10.26-45-11.17a99.37,99.37,0,0,0-41.14,6.12,97.13,97.13,0,0,0-20.11,10.17c-4.34,3-7.75,6.74-9.19,12-1.32,4.78-.72,11.16,2,15.41s6.85,8,12,9.19,11,1,15.41-2a77.1,77.1,0,0,1,13.63-7.47l-4.78,2a83.23,83.23,0,0,1,20.52-5.49l-5.32.72a95.28,95.28,0,0,1,24.45.11l-5.32-.72A105.69,105.69,0,0,1,1122,559l-4.77-2a105.73,105.73,0,0,1,22.85,13.2l-4-3.12a110.4,110.4,0,0,1,19.39,19.49l-3.13-4.05a134.16,134.16,0,0,1,17.33,29.93l-2-4.78a167.93,167.93,0,0,1,11.15,41.73l-.72-5.32a195.42,195.42,0,0,1,0,51.76l.72-5.31a153.58,153.58,0,0,1-10.07,37.92l2-4.78a121.67,121.67,0,0,1-15.26,26.41l3.12-4.05a128.56,128.56,0,0,1-23,22.92l4-3.12a180.52,180.52,0,0,1-39.65,22.55l4.78-2c-27.81,11.68-57.43,18.23-86.91,24.11q-59.35,11.85-118.72,23.65c-22.16,4.42-44.32,9.57-66.72,12.65l5.31-.72a161.8,161.8,0,0,1-42.4.45l5.32.72c-16.86-2.3-33.15-7.33-48.82-13.88l4.78,2c-23.93-10.1-46.25-23.48-68.37-37-8.94-5.45-22.39-2.25-27.37,7.18-5.14,9.74-2.37,21.54,7.18,27.36Z" transform="translate(-24.4 -43.82)"/><path class="cls-1" d="M961.86,276.74c.84-1.2,1.72-2.39,2.62-3.56l-3.13,4.05a91.15,91.15,0,0,1,16.12-16l-4,3.12a120.73,120.73,0,0,1,26.44-15.07l-4.78,2c20.7-8.67,43-12.86,65.11-15.85l-5.32.71c42.73-5.73,86-9.12,129.11-6.86q18.08,1,36,3.32l-5.31-.71c11.83,1.6,23.6,3.7,35.24,6.39a172.75,172.75,0,0,1,28.49,8.76l-4.78-2a83.16,83.16,0,0,1,18,10.28l-4.05-3.13a58.94,58.94,0,0,1,10.11,10l-3.13-4a54.86,54.86,0,0,1,6.88,11.77l-2-4.78a73.17,73.17,0,0,1,4.88,18.45l-.72-5.32a112.32,112.32,0,0,1-.2,29.25l.72-5.32a129.72,129.72,0,0,1-9,32.8l2-4.78A140.32,140.32,0,0,1,1279,361.08l3.13-4.05a140.5,140.5,0,0,1-24.5,24.54l4-3.13a130.36,130.36,0,0,1-28.87,16.95l4.78-2a122.26,122.26,0,0,1-16.44,5.56,20.61,20.61,0,0,0-12,9.19c-2.51,4.29-3.57,10.61-2,15.41s4.57,9.51,9.19,12a21,21,0,0,0,15.41,2c39.34-10.25,73.38-38.16,93.18-73.43A161,161,0,0,0,1337.65,335a150.33,150.33,0,0,0,6.15-30.68,124.78,124.78,0,0,0-1.38-34.51,71.73,71.73,0,0,0-4.4-15.27,89.62,89.62,0,0,0-5.14-11,84.11,84.11,0,0,0-7.24-10c-6.74-8.38-15.93-15.1-25.46-20a156.22,156.22,0,0,0-31.77-11.82c-24.24-6.32-49.34-9.85-74.3-11.7-49.17-3.63-98.6.5-147.31,7.32-18.48,2.58-37,6.1-54.56,12.44-19.94,7.18-39.16,17.4-53.85,33a121.61,121.61,0,0,0-11.07,13.82c-2.84,4-3.28,10.81-2,15.41s4.87,9.66,9.19,11.95c4.65,2.45,10.27,3.68,15.42,2l4.77-2a20.08,20.08,0,0,0,7.18-7.18Z" transform="translate(-24.4 -43.82)"/><path class="cls-1" d="M1291.17,407.46a64.53,64.53,0,0,1,14.48-3.68l-5.32.71a71.79,71.79,0,0,1,18.81.1l-5.32-.71a84.7,84.7,0,0,1,21.23,5.9l-4.78-2A95.45,95.45,0,0,1,1351.19,420l-4-3.13a98,98,0,0,1,17.34,17.37l-3.13-4a127.83,127.83,0,0,1,16.18,28l-2-4.78c6.74,16,10.67,33,13,50.17l-.71-5.32c2,14.92,3.32,30.26,1.35,45.25l.72-5.32a74.61,74.61,0,0,1-5,18.88l2-4.78a56.55,56.55,0,0,1-7.19,12.33l3.13-4.05a58.64,58.64,0,0,1-10.09,10l4-3.12a73.68,73.68,0,0,1-16.24,9.35l4.77-2a105.31,105.31,0,0,1-26.54,7l5.32-.72c-20.12,2.67-40.47.54-60.67.58-6,0-11.9.21-17.83.74a20.56,20.56,0,0,0-20,20c.23,5.17,1.93,10.54,5.86,14.14,3.71,3.41,8.92,6.33,14.14,5.86,16.29-1.46,32.62-.34,48.93-.06,15.9.27,32-.5,47.51-4.37a118.49,118.49,0,0,0,22.09-8.13A87.94,87.94,0,0,0,1403,597.33a55.25,55.25,0,0,0,6.47-6.42,82.53,82.53,0,0,0,8.46-11.47,88.85,88.85,0,0,0,6.27-13.54,68.9,68.9,0,0,0,2.92-9.73c3.41-15.22,3.41-30.82,2-46.26s-3.66-30.67-7.66-45.53a167.4,167.4,0,0,0-6.56-19.63A169.81,169.81,0,0,0,1404,421.94a143.54,143.54,0,0,0-14.72-20.27A93.79,93.79,0,0,0,1376,389.08a120.85,120.85,0,0,0-19.48-13,115.24,115.24,0,0,0-21.69-8.63,93.74,93.74,0,0,0-45.9-1.13,63.43,63.43,0,0,0-8.42,2.58,22.38,22.38,0,0,0-12,9.19,14.86,14.86,0,0,0-2.37,7.44,15.12,15.12,0,0,0,.35,8c1.57,4.84,4.57,9.51,9.2,11.95l4.77,2a20.22,20.22,0,0,0,10.64,0Z" transform="translate(-24.4 -43.82)"/><path class="cls-1" d="M1118.77,814.24A213.21,213.21,0,0,0,1178.88,833c21.1,3.42,42.38,4.93,63.71,6,20.59,1,41.32,2.17,61.9.28a184.14,184.14,0,0,0,34.73-6.09,159.47,159.47,0,0,0,29-11.81c16.7-8.71,31.89-20.66,45.34-33.78,13.63-13.3,25.58-28.23,36.8-43.58,24-32.84,45.75-69.85,47.76-111.47.58-12.08-1.12-24.24-6.71-35.08-3.49-6.75-8.79-11.74-14.79-16.18-4.88-3.6-10.52-5.88-16.13-8.1-16.46-6.52-33.45-12.09-51.29-12.7-4.47-.16-8.94,0-13.4.27-5.32.32-10.29,2-14.14,5.85-3.47,3.47-6.08,9.16-5.86,14.15.23,5.17,1.93,10.53,5.86,14.14,3.77,3.46,8.85,6.18,14.14,5.86a113.45,113.45,0,0,1,22.11.45l-5.32-.72a102.64,102.64,0,0,1,17.69,4.33c7.09,2.33,14.26,4.71,21.15,7.58l-4.78-2a46.79,46.79,0,0,1,9.78,5.44l-4-3.12a28.85,28.85,0,0,1,5.12,5.06l-3.12-4.05a30,30,0,0,1,3.52,6.18l-2-4.78a41.12,41.12,0,0,1,2.52,9.64l-.72-5.31a85.16,85.16,0,0,1-.38,22l.71-5.32a137.24,137.24,0,0,1-9.9,35l2-4.77c-8.07,19-19.29,36.41-31.22,53.14q-4.79,6.69-9.81,13.22l3.13-4.05c-13.06,16.86-27.55,32.74-44.42,45.85l4-3.12a154.47,154.47,0,0,1-34.2,20.27l4.77-2a141.55,141.55,0,0,1-35.5,9.41l5.31-.71c-15.93,2.11-32,2.08-48.08,1.52-15.41-.53-30.83-1.23-46.21-2.37-8.62-.63-17.21-1.46-25.78-2.61l5.32.71c-18.77-2.56-37.36-6.75-54.87-14.08l4.77,2q-4.28-1.8-8.44-3.85c-4.87-2.39-10-3.5-15.41-2-4.64,1.27-9.67,4.86-12,9.19-2.45,4.64-3.68,10.26-2,15.41,1.54,4.75,4.55,9.67,9.19,12Z" transform="translate(-24.4 -43.82)"/><path class="cls-1" d="M1334.37,263.76a90.43,90.43,0,0,1,8.57-7.54l-4,3.13a108.5,108.5,0,0,1,23.61-13.54l-4.77,2c14.42-6.08,29.75-9.65,45.15-12.22q7-1.17,14-2.11l-5.32.72c20.24-2.71,40.73-4.13,61.14-3q8.58.48,17.11,1.61l-5.32-.72A177.46,177.46,0,0,1,1529.33,244l-4.78-2A133.66,133.66,0,0,1,1554,259.19l-4-3.13a130.26,130.26,0,0,1,23.32,23.25l-3.13-4a112.59,112.59,0,0,1,14.47,24.65l-2-4.77a95.35,95.35,0,0,1,6.6,24l-.72-5.31a89.35,89.35,0,0,1,0,23.22l.71-5.32a110.53,110.53,0,0,1-7.88,28l2-4.77c-7,16.41-17,31.32-27.59,45.58-3,4.07-6.11,8.1-9.21,12.12l3.12-4.05c-.39.52-.79,1-1.19,1.54a22.36,22.36,0,0,0-5.86,14.15c0,4.9,2.18,10.76,5.86,14.14s8.82,6.09,14.14,5.86l5.32-.72a20,20,0,0,0,8.83-5.14c10.88-14.06,21.85-28.13,31-43.43a197,197,0,0,0,12.74-26,117.67,117.67,0,0,0,8.66-49.4,114.42,114.42,0,0,0-4.36-25.37A128.27,128.27,0,0,0,1615,271a143.49,143.49,0,0,0-14.24-21c-9.71-12.34-21.89-22.77-35-31.35A130.19,130.19,0,0,0,1547,208.45a194,194,0,0,0-27.83-10.11,224.76,224.76,0,0,0-29.33-5.49,238.31,238.31,0,0,0-25.6-1.95,334.49,334.49,0,0,0-50.6,3c-17.14,2.22-34.33,4.75-50.93,9.72a178.17,178.17,0,0,0-25.42,9.86,123.33,123.33,0,0,0-23,14.7,89.69,89.69,0,0,0-8.21,7.26,20.65,20.65,0,0,0-5.85,14.14c0,4.91,2.18,10.76,5.85,14.14,3.82,3.5,8.82,6.1,14.15,5.86a20.86,20.86,0,0,0,14.14-5.86Z" transform="translate(-24.4 -43.82)"/><path class="cls-1" d="M1629,288c0-.35.08-.69.13-1l-.72,5.32a22.6,22.6,0,0,1,1.37-4.92l-2,4.77a29.41,29.41,0,0,1,3.64-6.19l-3.13,4.05a66.85,66.85,0,0,1,11.36-10.94q7.14-5.71,14.38-11.31l-4,3.13c16.52-12.74,33.77-24.83,53.08-33l-4.78,2a124.07,124.07,0,0,1,30.58-8.49l-5.31.72A97.5,97.5,0,0,1,1749,232l-5.31-.72a79.76,79.76,0,0,1,20.3,5.48l-4.77-2a92.68,92.68,0,0,1,19.59,11.74l-4-3.13a178.75,178.75,0,0,1,31.32,32l-3.13-4.05a237,237,0,0,1,30.16,52.42l-2-4.78a322.21,322.21,0,0,1,19.39,66.15q1.78,9.63,3.08,19.34l-.71-5.32c2.77,20.88,4,42.12,1.2,63.06l.72-5.31a130.64,130.64,0,0,1-8.59,32.62l2-4.78a101.62,101.62,0,0,1-13,22.37l3.13-4a121.86,121.86,0,0,1-22,21.55l4.05-3.13c-14.79,11.36-31.36,20.05-47.87,28.6-4.32,2.24-7.92,7.35-9.19,12-1.32,4.79-.72,11.16,2,15.41s6.85,8,12,9.19a21.76,21.76,0,0,0,15.41-2c8.88-4.6,17.74-9.22,26.36-14.28a231.61,231.61,0,0,0,28.43-19.72,134.32,134.32,0,0,0,23.25-24.68c6.83-9.17,11.74-19.54,15.7-30.23,4-10.94,6.07-22.26,7.59-33.79a194.61,194.61,0,0,0,1.48-30.14,294.57,294.57,0,0,0-2.4-30.11c-1.46-11.55-3.19-23.05-5.53-34.45a317.37,317.37,0,0,0-17.22-57.06c-8.15-19.74-17.8-38.7-30.57-55.89a234.14,234.14,0,0,0-21.94-25.94,152.22,152.22,0,0,0-28.09-22.71,106.18,106.18,0,0,0-18.29-8.65,76.67,76.67,0,0,0-15.42-4,119.83,119.83,0,0,0-20.36-1.72,140.52,140.52,0,0,0-20.76,2.16c-12.18,2-23.66,6.23-34.9,11.23a193.84,193.84,0,0,0-28.87,16.22c-10.39,7-20.28,14.62-30.11,22.32-4.14,3.25-8.33,6.45-12.36,9.84a73,73,0,0,0-12.41,13.62,46.05,46.05,0,0,0-5,10.13c-1.43,3.6-1.8,7.44-2.21,11.28-.5,4.78,2.6,10.88,5.86,14.14,3.47,3.47,9.16,6.08,14.14,5.86,5.18-.23,10.54-1.93,14.15-5.86l3.12-4A19.87,19.87,0,0,0,1629,288Z" transform="translate(-24.4 -43.82)"/><path class="cls-1" d="M1372.52,805.5c9.91,7.22,19.85,14.48,30.64,20.35a201.11,201.11,0,0,0,38.65,15.61,255.44,255.44,0,0,0,41.08,8.42,170.7,170.7,0,0,0,36.85.87c12.69-1.13,25.33-3.27,37.41-7.4a144.28,144.28,0,0,0,32.08-15.24A121.68,121.68,0,0,0,1627.89,789a119.31,119.31,0,0,0,8.73-18.42,89.66,89.66,0,0,0,4.4-15,117.27,117.27,0,0,0,2.41-20.37,109.24,109.24,0,0,0-1.73-20.33,74.14,74.14,0,0,0-4-14.85,124.16,124.16,0,0,0-5-11.4,19.28,19.28,0,0,0-19.93-9.55,14.87,14.87,0,0,0-7.43,2.38c-4.27,2.75-8,6.85-9.2,12l-.71,5.32a19.87,19.87,0,0,0,2.73,10.09q1.17,2.28,2.17,4.62l-2-4.77a74.91,74.91,0,0,1,5.19,19.16l-.71-5.31a84.58,84.58,0,0,1,0,21.91l.71-5.32a90.72,90.72,0,0,1-6.34,23.2l2-4.78a91.35,91.35,0,0,1-11.5,19.66l3.13-4.05a103.36,103.36,0,0,1-18.31,18.25l4-3.13A119.37,119.37,0,0,1,1550,803.67l4.78-2a133.85,133.85,0,0,1-33.81,9.1l5.31-.72a170.1,170.1,0,0,1-44.74-.33l5.32.71a220.78,220.78,0,0,1-55.58-15l4.78,2c-15.73-6.67-29.56-16.42-43.3-26.43a14.87,14.87,0,0,0-7.44-2.38,15.23,15.23,0,0,0-8,.36,22.38,22.38,0,0,0-12,9.19c-2.46,4.64-3.68,10.27-2,15.41l2,4.78a20.14,20.14,0,0,0,7.17,7.18Z" transform="translate(-24.4 -43.82)"/><path class="cls-1" d="M1596.28,815.71a247,247,0,0,0,51.29,19.08c18,4.55,36.37,7.28,54.77,9.52,8.38,1,16.78,1.88,25.19,2.66,7.86.74,15.72,1.51,23.59,1.95a144.06,144.06,0,0,0,22.66-.28,126.68,126.68,0,0,0,15.6-2.4,88.67,88.67,0,0,0,14.71-5.2,51.5,51.5,0,0,0,9.3-5.09,71.9,71.9,0,0,0,11.89-10,77.92,77.92,0,0,0,14.14-21.51,156.84,156.84,0,0,0,8.65-25.26c1.88-7.63,3.42-15.34,5-23,3.7-17.9,7-35.85,9.48-54s4-36.13,3.42-54.32a256,256,0,0,0-3-30.25,175.15,175.15,0,0,0-5.63-24.9c-1.16-3.79-2.43-7.56-3.93-11.23a121.51,121.51,0,0,0-6.33-13.77,82.58,82.58,0,0,0-8.79-12.32,57.84,57.84,0,0,0-11-9.65,31.63,31.63,0,0,0-4.22-2.53,64.34,64.34,0,0,0-9.06-3.72,15.26,15.26,0,0,0-8-.36,20.57,20.57,0,0,0-16.62,14.33c-1.17,5.12-.92,10.87,2,15.41a21.52,21.52,0,0,0,12,9.19,30.4,30.4,0,0,1,2.89,1.07l-4.77-2a31.88,31.88,0,0,1,6.51,3.85l-4-3.13a40.8,40.8,0,0,1,7.26,7.36l-3.12-4.05a68.15,68.15,0,0,1,8.37,14.83l-2-4.78c5.41,12.92,8.61,26.82,10.47,40.66l-.72-5.32c2.48,18.8,2.26,37.85.52,56.7-.5,5.44-1.13,10.87-1.85,16.29l.71-5.32c-1.8,13.36-4.17,26.64-6.8,39.86-2.39,12.06-4.71,24.19-7.74,36.1a127.82,127.82,0,0,1-5.91,18.12l2-4.78a68,68,0,0,1-8.37,14.69l3.13-4.05a50.43,50.43,0,0,1-8.8,8.9l4-3.13a51.13,51.13,0,0,1-11.31,6.57l4.78-2a69.69,69.69,0,0,1-17.51,4.54l5.32-.71c-9.9,1.29-19.92,1-29.86.31-10.86-.77-21.71-1.84-32.54-3q-9.6-1-19.18-2.28l5.32.71c-20.26-2.74-40.45-6.6-59.89-13q-8.14-2.7-16.07-6l4.78,2q-6.39-2.71-12.58-5.85a22.44,22.44,0,0,0-15.41-2,22.38,22.38,0,0,0-12,9.19c-2.46,4.64-3.69,10.26-2,15.41,1.55,4.79,4.56,9.6,9.19,12Z" transform="translate(-24.4 -43.82)"/><path class="cls-1" d="M338.93,698a38.89,38.89,0,0,1,3.52-5.44l-3.13,4.05c4.34-5.57,9.86-10,15.17-14.59A193.14,193.14,0,0,0,371,665.89c11.57-12.67,21.82-26.49,32.21-40.12,9.62-12.63,19.23-25.27,28.59-38.1s18.44-25.81,27-39.14,16.67-26.94,24-41c.92-1.77,1.83-3.56,2.73-5.34a15,15,0,0,0,2.38-7.44,20.55,20.55,0,0,0-9.55-19.93c-4.64-2.45-10.27-3.68-15.41-2-4.78,1.54-9.63,4.55-12,9.19a519.6,519.6,0,0,1-32.4,55c-11.85,17.75-24.49,35-37.35,52q-10.8,14.31-21.73,28.52l3.13-4c-6.84,8.85-13.84,17.59-21.47,25.78-3.76,4-7.66,7.92-11.75,11.61-3.76,3.39-7.72,6.56-11.44,10a73.52,73.52,0,0,0-13.6,16.91,21.05,21.05,0,0,0-2,15.41,22.33,22.33,0,0,0,9.2,11.95c4.64,2.45,10.26,3.68,15.41,2,4.84-1.57,9.49-4.57,11.95-9.19Z" transform="translate(-24.4 -43.82)"/><path class="cls-1" d="M52.13,935.37a521.35,521.35,0,0,0,59.54,21.88,488.36,488.36,0,0,0,57,13.15,535.19,535.19,0,0,0,63.24,7,488.3,488.3,0,0,0,58.52-.68,524.71,524.71,0,0,0,63.05-8.4c2.4-.47,4.81-1,7.2-1.47a22.41,22.41,0,0,0,12-9.2,14.86,14.86,0,0,0,2.37-7.43,15.16,15.16,0,0,0-.36-8c-1.56-4.84-4.56-9.5-9.19-12l-4.78-2a20.18,20.18,0,0,0-10.63,0q-17.47,3.71-35.18,6.1l5.32-.72a488.43,488.43,0,0,1-101.12,3q-14.4-1.07-28.72-3l5.31.71a487,487,0,0,1-97.34-23.39Q85,906.19,71.89,900.68l4.78,2-4.35-1.86a14.86,14.86,0,0,0-7.43-2.37,15.16,15.16,0,0,0-8,.36C52.27,900.1,47.24,903.68,45,908c-2.45,4.64-3.68,10.26-2,15.41l2,4.78a20.19,20.19,0,0,0,7.17,7.17Z" transform="translate(-24.4 -43.82)"/><path class="cls-1" d="M1654.75,175.7c26.45-9.54,53-19.1,80.54-25.14,7.68-1.69,15.42-3.09,23.21-4.14l-5.31.72c14.81-2,30-2.9,44.82-.94l-5.31-.71a90,90,0,0,1,22.51,5.91l-4.78-2a71.26,71.26,0,0,1,15.51,9l-4-3.13a59.58,59.58,0,0,1,10.44,10.31l-3.13-4a54.35,54.35,0,0,1,3.31,4.79,20.93,20.93,0,0,0,12,9.19,15.26,15.26,0,0,0,8,.36,15,15,0,0,0,7.43-2.38c4.27-2.75,8-6.85,9.19-11.95s.84-10.77-2-15.41a72.58,72.58,0,0,0-14.76-17.44A86.78,86.78,0,0,0,1833.12,116a103.61,103.61,0,0,0-23.38-8,147.32,147.32,0,0,0-26.58-2.83c-16.32-.24-32.78,1.89-48.8,4.87a379.24,379.24,0,0,0-42.86,10.85c-16,4.94-31.68,10.59-47.39,16.26a15,15,0,0,0-6.8,3.58,15.11,15.11,0,0,0-5.15,5.61,14.86,14.86,0,0,0-2.37,7.43,15.15,15.15,0,0,0,.35,8c1.57,4.84,4.57,9.51,9.2,12s10.38,3.83,15.41,2Z" transform="translate(-24.4 -43.82)"/><path class="cls-1" d="M1816.85,83.12A139.57,139.57,0,0,1,1850,92.54l-4.78-2a141.1,141.1,0,0,1,30.84,18l-4-3.13q4.79,3.69,9.23,7.79a20.93,20.93,0,0,0,14.14,5.86,22.37,22.37,0,0,0,14.14-5.86c3.5-3.81,6.1-8.82,5.86-14.14s-1.94-10.53-5.86-14.15a162.17,162.17,0,0,0-64.17-36.39,140.19,140.19,0,0,0-17.88-4,15.11,15.11,0,0,0-8-.35,14.92,14.92,0,0,0-7.44,2.37,15.11,15.11,0,0,0-5.61,5.15,15.05,15.05,0,0,0-3.58,6.8c-1.16,5.12-.91,10.87,2,15.41l3.13,4a19.9,19.9,0,0,0,8.82,5.14Z" transform="translate(-24.4 -43.82)"/></svg>