<svg width="32" height="32" viewBox="0 0 32 32" fill="none" xmlns="http://www.w3.org/2000/svg">
<rect x="1" y="15" width="15" height="16" fill="#F25D0A"/>
<rect x="1" y="4" width="15" height="16" fill="black"/>
<rect x="6" y="2" width="15" height="16" fill="#229B63"/>
<rect x="7" y="8" width="15" height="16" fill="#380D54"/>
<rect x="16" y="1" width="15" height="16" fill="#12918B"/>
<rect x="15" y="14" width="15" height="16" fill="#E61F3A"/>
<path d="M9.52979 3.55225H11.9907L17.5278 15H15.0889L14.1733 13.0737H7.48633L6.6001 15H4.15381L9.52979 3.55225ZM13.2578 11.1621L10.7822 5.96191L8.37256 11.1621H13.2578ZM19.3076 3.55225H21.6294V12.9639H28.2871V15H19.3076V3.55225ZM5.62598 16.5522H15.3745V18.5884H7.94775V20.8735H14.5249V22.7852H7.94775V25.9712H15.5283V28H5.62598V16.5522ZM21.3584 22.1846L16.9565 16.5522H19.7983L22.8379 20.4927L25.8921 16.5522H28.6899L24.2075 22.1626L28.8438 28H25.9946L22.7354 23.8838L19.4028 28H16.5977L21.3584 22.1846Z" fill="white"/>
<path d="M9.52979 3.55225V3.05225C9.33596 3.05225 9.1596 3.16427 9.07721 3.33971L9.52979 3.55225ZM11.9907 3.55225L12.4408 3.33453C12.3573 3.16191 12.1825 3.05225 11.9907 3.05225V3.55225ZM17.5278 15V15.5C17.7 15.5 17.86 15.4115 17.9514 15.2657C18.0429 15.1198 18.0529 14.9372 17.9779 14.7823L17.5278 15ZM15.0889 15L14.6373 15.2146C14.7201 15.3889 14.8959 15.5 15.0889 15.5V15ZM14.1733 13.0737L14.6249 12.8591C14.5421 12.6848 14.3663 12.5737 14.1733 12.5737V13.0737ZM7.48633 13.0737V12.5737C7.29108 12.5737 7.1137 12.6874 7.0321 12.8647L7.48633 13.0737ZM6.6001 15V15.5C6.79534 15.5 6.97273 15.3864 7.05433 15.209L6.6001 15ZM4.15381 15L3.70123 14.7875C3.6285 14.9423 3.64001 15.1236 3.73175 15.2681C3.82349 15.4125 3.98271 15.5 4.15381 15.5V15ZM13.2578 11.1621V11.6621C13.4294 11.6621 13.589 11.5741 13.6806 11.4291C13.7722 11.284 13.783 11.1021 13.7093 10.9472L13.2578 11.1621ZM10.7822 5.96191L11.2337 5.747C11.1504 5.572 10.9734 5.46091 10.7796 5.46192C10.5858 5.46293 10.4101 5.57585 10.3286 5.7517L10.7822 5.96191ZM8.37256 11.1621L7.9189 10.9519C7.84715 11.1067 7.85932 11.2875 7.95119 11.4313C8.04305 11.5751 8.20191 11.6621 8.37256 11.6621V11.1621ZM9.52979 4.05225H11.9907V3.05225H9.52979V4.05225ZM11.5406 3.76996L17.0777 15.2177L17.9779 14.7823L12.4408 3.33453L11.5406 3.76996ZM17.5278 14.5H15.0889V15.5H17.5278V14.5ZM15.5405 14.7854L14.6249 12.8591L13.7218 13.2884L14.6373 15.2146L15.5405 14.7854ZM14.1733 12.5737H7.48633V13.5737H14.1733V12.5737ZM7.0321 12.8647L6.14587 14.791L7.05433 15.209L7.94056 13.2827L7.0321 12.8647ZM6.6001 14.5H4.15381V15.5H6.6001V14.5ZM4.60639 15.2125L9.98236 3.76478L9.07721 3.33971L3.70123 14.7875L4.60639 15.2125ZM13.7093 10.9472L11.2337 5.747L10.3308 6.17683L12.8064 11.377L13.7093 10.9472ZM10.3286 5.7517L7.9189 10.9519L8.82622 11.3723L11.2359 6.17213L10.3286 5.7517ZM8.37256 11.6621H13.2578V10.6621H8.37256V11.6621ZM19.3076 3.55225V3.05225C19.0315 3.05225 18.8076 3.2761 18.8076 3.55225H19.3076ZM21.6294 3.55225H22.1294C22.1294 3.2761 21.9055 3.05225 21.6294 3.05225V3.55225ZM21.6294 12.9639H21.1294C21.1294 13.24 21.3533 13.4639 21.6294 13.4639V12.9639ZM28.2871 12.9639H28.7871C28.7871 12.6877 28.5633 12.4639 28.2871 12.4639V12.9639ZM28.2871 15V15.5C28.5633 15.5 28.7871 15.2761 28.7871 15H28.2871ZM19.3076 15H18.8076C18.8076 15.2761 19.0315 15.5 19.3076 15.5V15ZM19.3076 4.05225H21.6294V3.05225H19.3076V4.05225ZM21.1294 3.55225V12.9639H22.1294V3.55225H21.1294ZM21.6294 13.4639H28.2871V12.4639H21.6294V13.4639ZM27.7871 12.9639V15H28.7871V12.9639H27.7871ZM28.2871 14.5H19.3076V15.5H28.2871V14.5ZM19.8076 15V3.55225H18.8076V15H19.8076ZM5.62598 16.5522V16.0522C5.34983 16.0522 5.12598 16.2761 5.12598 16.5522H5.62598ZM15.3745 16.5522H15.8745C15.8745 16.2761 15.6507 16.0522 15.3745 16.0522V16.5522ZM15.3745 18.5884V19.0884C15.6507 19.0884 15.8745 18.8645 15.8745 18.5884H15.3745ZM7.94775 18.5884V18.0884C7.67161 18.0884 7.44775 18.3122 7.44775 18.5884H7.94775ZM7.94775 20.8735H7.44775C7.44775 21.1497 7.67161 21.3735 7.94775 21.3735V20.8735ZM14.5249 20.8735H15.0249C15.0249 20.5974 14.801 20.3735 14.5249 20.3735V20.8735ZM14.5249 22.7852V23.2852C14.801 23.2852 15.0249 23.0613 15.0249 22.7852H14.5249ZM7.94775 22.7852V22.2852C7.67161 22.2852 7.44775 22.509 7.44775 22.7852H7.94775ZM7.94775 25.9712H7.44775C7.44775 26.2473 7.67161 26.4712 7.94775 26.4712V25.9712ZM15.5283 25.9712H16.0283C16.0283 25.695 15.8045 25.4712 15.5283 25.4712V25.9712ZM15.5283 28V28.5C15.8045 28.5 16.0283 28.2761 16.0283 28H15.5283ZM5.62598 28H5.12598C5.12598 28.2761 5.34983 28.5 5.62598 28.5V28ZM5.62598 17.0522H15.3745V16.0522H5.62598V17.0522ZM14.8745 16.5522V18.5884H15.8745V16.5522H14.8745ZM15.3745 18.0884H7.94775V19.0884H15.3745V18.0884ZM7.44775 18.5884V20.8735H8.44775V18.5884H7.44775ZM7.94775 21.3735H14.5249V20.3735H7.94775V21.3735ZM14.0249 20.8735V22.7852H15.0249V20.8735H14.0249ZM14.5249 22.2852H7.94775V23.2852H14.5249V22.2852ZM7.44775 22.7852V25.9712H8.44775V22.7852H7.44775ZM7.94775 26.4712H15.5283V25.4712H7.94775V26.4712ZM15.0283 25.9712V28H16.0283V25.9712H15.0283ZM15.5283 27.5H5.62598V28.5H15.5283V27.5ZM6.12598 28V16.5522H5.12598V28H6.12598ZM21.3584 22.1846L21.7453 22.5013C21.8934 22.3204 21.8963 22.0609 21.7524 21.8767L21.3584 22.1846ZM16.9565 16.5522V16.0522C16.7654 16.0522 16.5909 16.1613 16.5071 16.3331C16.4233 16.5049 16.4449 16.7095 16.5626 16.8601L16.9565 16.5522ZM19.7983 16.5522L20.1942 16.2469C20.0996 16.1241 19.9533 16.0522 19.7983 16.0522V16.5522ZM22.8379 20.4927L22.442 20.7981C22.5365 20.9206 22.6825 20.9925 22.8373 20.9927C22.9921 20.9929 23.1383 20.9213 23.2331 20.799L22.8379 20.4927ZM25.8921 16.5522V16.0522C25.7375 16.0522 25.5916 16.1238 25.4969 16.2459L25.8921 16.5522ZM28.6899 16.5522L29.0806 16.8643C29.2005 16.7142 29.2238 16.5087 29.1405 16.3355C29.0572 16.1624 28.8821 16.0522 28.6899 16.0522V16.5522ZM24.2075 22.1626L23.8169 21.8505C23.6714 22.0326 23.671 22.2911 23.816 22.4736L24.2075 22.1626ZM28.8438 28V28.5C29.0356 28.5 29.2106 28.3902 29.294 28.2174C29.3774 28.0446 29.3546 27.8393 29.2353 27.689L28.8438 28ZM25.9946 28L25.6026 28.3104C25.6975 28.4302 25.8419 28.5 25.9946 28.5V28ZM22.7354 23.8838L23.1273 23.5734C23.0331 23.4544 22.8899 23.3846 22.7381 23.3838C22.5862 23.383 22.4423 23.4512 22.3467 23.5692L22.7354 23.8838ZM19.4028 28V28.5C19.5537 28.5 19.6965 28.4319 19.7914 28.3146L19.4028 28ZM16.5977 28L16.2108 27.6833C16.0884 27.8328 16.0631 28.0394 16.1458 28.2141C16.2285 28.3887 16.4044 28.5 16.5977 28.5V28ZM21.7524 21.8767L17.3505 16.2444L16.5626 16.8601L20.9644 22.4925L21.7524 21.8767ZM16.9565 17.0522H19.7983V16.0522H16.9565V17.0522ZM19.4024 16.8576L22.442 20.7981L23.2338 20.1873L20.1942 16.2469L19.4024 16.8576ZM23.2331 20.799L26.2873 16.8586L25.4969 16.2459L22.4427 20.1864L23.2331 20.799ZM25.8921 17.0522H28.6899V16.0522H25.8921V17.0522ZM28.2993 16.2401L23.8169 21.8505L24.5982 22.4747L29.0806 16.8643L28.2993 16.2401ZM23.816 22.4736L28.4522 28.311L29.2353 27.689L24.5991 21.8516L23.816 22.4736ZM28.8438 27.5H25.9946V28.5H28.8438V27.5ZM26.3866 27.6896L23.1273 23.5734L22.3434 24.1942L25.6026 28.3104L26.3866 27.6896ZM22.3467 23.5692L19.0142 27.6854L19.7914 28.3146L23.124 24.1984L22.3467 23.5692ZM19.4028 27.5H16.5977V28.5H19.4028V27.5ZM16.9845 28.3167L21.7453 22.5013L20.9715 21.8678L16.2108 27.6833L16.9845 28.3167Z" fill="white"/>
</svg>
